STARTFONT 2.1
COMMENT Possibly created or at least modified by DeCurs
COMMENT (c) 2001 Pasi Savolainen <pvsavola@cc.hut.fi>
FONT cursor
SIZE 31 78 78
FONTBOUNDINGBOX 64 64 32 32
STARTPROPERTIES 3
FONT_ASCENT 16
FONT_DESCENT 17
DEFAULT_CHAR 0
ENDPROPERTIES
CHARS 154
STARTCHAR X_cursor
ENCODING 0
SWIDTH 966 0
DWIDTH 30 0
BBX 29 19 -2 -18
BITMAP
70000000
48000000
48000000
27C00000
24B80000
12540000
10020000
78020000
980207C0
84021FF0
60021BB0
18003118
04003838
02003C78
00003838
00003118
00001BB0
00001FF0
000007C0
ENDCHAR
STARTCHAR X_cursor_mask
ENCODING 1
SWIDTH 966 0
DWIDTH 30 0
BBX 29 19 -2 -18
BITMAP
70000000
78000000
78000000
3FC00000
3FF80000
1FFC0000
1FFE0000
7FFE0000
FF6E07C0
FF6E1FF0
7FFE1FF0
1FF83FF8
07E03FF8
03E03FF8
00003FF8
00003FF8
00001FF0
00001FF0
000007C0
ENDCHAR
STARTCHAR arrow
ENCODING 2
SWIDTH 515 0
DWIDTH 16 0
BBX 15 18 -2 -17
BITMAP
7000
4800
4800
27C0
24B8
1254
1002
7802
9802
8402
6002
1800
0400
0206
000A
01F2
0104
01F8
ENDCHAR
STARTCHAR arrow_mask
ENCODING 3
SWIDTH 515 0
DWIDTH 16 0
BBX 15 18 -2 -17
BITMAP
7000
7800
7800
3FC0
3FF8
1FFC
1FFE
7FFE
FF6E
FF6E
7FFE
1FF8
07E0
03E6
000E
01FE
01FC
01F8
ENDCHAR
STARTCHAR based_arrow_down
ENCODING 4
SWIDTH 644 0
DWIDTH 20 0
BBX 19 11 -9 -1
BITMAP
C00060
F001E0
7E0FC0
3FFF80
1FFF00
0FFE00
07FC00
03F800
01F000
00E000
004000
ENDCHAR
STARTCHAR based_arrow_down_mask
ENCODING 5
SWIDTH 709 0
DWIDTH 22 0
BBX 21 13 -10 -2
BITMAP
F00078
FC01F8
FF8FF8
FFFFF8
3FFFE0
1FFFC0
0FFF80
07FF00
03FE00
01FC00
01FC00
00F800
007000
ENDCHAR
STARTCHAR based_arrow_up
ENCODING 6
SWIDTH 644 0
DWIDTH 20 0
BBX 19 11 -9 -10
BITMAP
004000
00E000
01F000
03F800
07FC00
0FFE00
1FFF00
3FFF80
7E0FC0
F001E0
C00060
ENDCHAR
STARTCHAR based_arrow_up_mask
ENCODING 7
SWIDTH 709 0
DWIDTH 22 0
BBX 21 13 -10 -11
BITMAP
007000
00F800
01FC00
01FC00
03FE00
07FF00
0FFF80
1FFFC0
3FFFE0
7FFFF8
FF8FF8
FC01F8
F00078
ENDCHAR
STARTCHAR boat
ENCODING 8
SWIDTH 547 0
DWIDTH 17 0
BBX 16 8 -14 -4
BITMAP
0700
0EC0
9820
779F
0000
FFE7
FFD8
FFA0
ENDCHAR
STARTCHAR boat_mask
ENCODING 9
SWIDTH 547 0
DWIDTH 17 0
BBX 16 9 -14 -5
BITMAP
0700
0FC0
9FE0
FFFF
FFFF
FFFF
FFF8
FFE0
FFC0
ENDCHAR
STARTCHAR bogosity
ENCODING 10
SWIDTH 515 0
DWIDTH 16 0
BBX 15 16 -7 -9
BITMAP
FBBE
8AA2
EAAE
2AA8
EEEE
8002
AEEA
AAAA
AAAA
AEEA
8002
EEEE
2AA8
EAAE
8AA2
FBBE
ENDCHAR
STARTCHAR bogosity_mask
ENCODING 11
SWIDTH 515 0
DWIDTH 16 0
BBX 15 16 -7 -9
BITMAP
FBBE
FBBE
FBBE
3BB8
FFFE
FFFE
FFFE
FBBE
FBBE
FFFE
FFFE
FFFE
3BB8
FBBE
FBBE
FBBE
ENDCHAR
STARTCHAR bottom_left_corner
ENCODING 12
SWIDTH 547 0
DWIDTH 17 0
BBX 16 16 -8 -8
BITMAP
03FC
1FFE
3103
6103
41C3
4083
C113
FBB3
CDDF
C883
C102
C382
C086
C08C
7FF8
3FC0
ENDCHAR
STARTCHAR bottom_left_corner_mask
ENCODING 13
SWIDTH 547 0
DWIDTH 17 0
BBX 16 16 -8 -8
BITMAP
03FC
1FFE
31FF
61FF
41FF
40FF
C1FF
FBFF
FFDF
FF83
FF02
FF82
FF86
FF8C
7FF8
3FC0
ENDCHAR
STARTCHAR bottom_right_corner
ENCODING 14
SWIDTH 547 0
DWIDTH 17 0
BBX 16 16 -8 -8
BITMAP
3FC0
7FF8
C08C
C086
C382
C102
C883
CDDF
FBB3
C113
4083
43C3
6203
3203
1FFE
07FC
ENDCHAR
STARTCHAR bottom_right_corner_mask
ENCODING 15
SWIDTH 547 0
DWIDTH 17 0
BBX 16 16 -8 -8
BITMAP
3FC0
7FF8
FF8C
FF86
FF82
FF02
FF83
FFDF
FBFF
C1FF
40FF
43FF
63FF
33FF
1FFE
07FC
ENDCHAR
STARTCHAR bottom_side
ENCODING 16
SWIDTH 515 0
DWIDTH 16 0
BBX 15 16 -7 -2
BITMAP
0380
0280
0280
0280
0280
0280
3298
2AA8
16D0
0AA0
0440
0280
FFFE
8002
8002
FFFE
ENDCHAR
STARTCHAR bottom_side_mask
ENCODING 17
SWIDTH 515 0
DWIDTH 16 0
BBX 15 16 -7 -2
BITMAP
0380
0380
0380
0380
0380
0380
3398
3BB8
1FF0
0FE0
07C0
0380
FFFE
FFFE
FFFE
FFFE
ENDCHAR
STARTCHAR bottom_tee
ENCODING 18
SWIDTH 547 0
DWIDTH 17 0
BBX 16 12 -8 -2
BITMAP
03C0
0240
0240
0240
0240
0240
0240
0240
FE7F
8001
8001
FFFF
ENDCHAR
STARTCHAR bottom_tee_mask
ENCODING 19
SWIDTH 547 0
DWIDTH 17 0
BBX 16 12 -8 -2
BITMAP
03C0
03C0
03C0
03C0
03C0
03C0
03C0
03C0
FFFF
FFFF
FFFF
FFFF
ENDCHAR
STARTCHAR box_spiral
ENCODING 20
SWIDTH 515 0
DWIDTH 16 0
BBX 15 16 -7 -8
BITMAP
0002
FFFE
8002
BFFA
A00A
AFEA
A82A
ABAA
AAAA
A8AA
AFAA
A02A
BFEA
800A
FFFA
0002
ENDCHAR
STARTCHAR box_spiral_mask
ENCODING 21
SWIDTH 547 0
DWIDTH 17 0
BBX 16 16 -8 -8
BITMAP
FFFF
FFFF
FFFF
FFFF
FFFF
FFFF
FFFF
FFFF
FFFF
FFFF
FFFF
FFFF
FFFF
FFFF
FFFF
FFFF
ENDCHAR
STARTCHAR center_ptr
ENCODING 22
SWIDTH 418 0
DWIDTH 13 0
BBX 12 16 -5 -15
BITMAP
0F00
0900
1980
1080
30C0
2040
6060
4020
C030
9990
B9D0
E970
0900
0900
0900
0F00
ENDCHAR
STARTCHAR center_ptr_mask
ENCODING 23
SWIDTH 418 0
DWIDTH 13 0
BBX 12 16 -5 -15
BITMAP
0F00
0F00
1F80
1F80
3FC0
3FC0
7FE0
7FE0
FFF0
FFF0
FFF0
EF70
0F00
0F00
0F00
0F00
ENDCHAR
STARTCHAR circle
ENCODING 24
SWIDTH 773 0
DWIDTH 24 0
BBX 23 21 -2 -20
BITMAP
700000
480000
480000
27C000
24B800
125400
100200
780218
980224
800242
600242
180242
040024
020024
000024
000018
000000
000018
000024
000024
000018
ENDCHAR
STARTCHAR circle_mask
ENCODING 25
SWIDTH 773 0
DWIDTH 24 0
BBX 23 21 -2 -20
BITMAP
700000
780000
780000
3FC000
3FF800
1FFC00
1FFE00
7FFE18
FF6E3C
FF6E7E
7FFE7E
1FFE7E
07F83C
03E03C
00003C
000018
000000
000018
00003C
00003C
000018
ENDCHAR
STARTCHAR clock
ENCODING 26
SWIDTH 966 0
DWIDTH 30 0
BBX 29 27 -2 -26
BITMAP
70000000
48000000
48000000
27C00000
24B80000
12540000
10020000
78020000
98020000
84020000
60020000
18020000
04000000
02000F80
00000F80
00000F80
00001FC0
00003060
00006438
00004398
00004018
00006038
00003060
00001FC0
00000F80
00000F80
00000D80
ENDCHAR
STARTCHAR clock_mask
ENCODING 27
SWIDTH 966 0
DWIDTH 30 0
BBX 29 28 -2 -27
BITMAP
70000000
78000000
78000000
3FC00000
3FF80000
1FFC0000
1FFE0000
7FFE0000
FF6E0000
FF6E0000
7FFE0000
1FFE0000
07F80000
03E00F80
00000F80
00000F80
00001FC0
00003FE0
00007FF8
00007FF8
00007FF8
00007FF8
00003FF8
00001FE0
00000FC0
00000FC0
00000DC0
00000FC0
ENDCHAR
STARTCHAR coffee_mug
ENCODING 28
SWIDTH 1095 0
DWIDTH 34 0
BBX 33 24 -2 -23
BITMAP
7000000000
4800000000
4800000000
27C0000000
24B8000000
1254000000
1002000000
7802000000
9802000000
8402004000
6002000000
1800001000
0400002000
0200000000
000001FE00
0000020100
000001FE80
000001FE80
000001FF00
000004FC80
0000087800
0000040080
0000010200
0000007800
ENDCHAR
STARTCHAR coffee_mug_mask
ENCODING 29
SWIDTH 1095 0
DWIDTH 34 0
BBX 33 24 -2 -23
BITMAP
7000000000
7800000000
7800000000
3FC0000000
3FF8000000
1FFC000000
1FFE000000
7FFE000000
FF6E000000
FF6E004800
7FFE000000
1FF0001000
07C0006800
03C0000000
000001FE00
000003FF00
000001FE80
000001FE80
000001FF00
000007FF80
00000FFF80
000007FF80
000001FE00
0000007800
ENDCHAR
STARTCHAR cross
ENCODING 30
SWIDTH 547 0
DWIDTH 17 0
BBX 16 16 -7 -9
BITMAP
0540
0540
0540
0540
0540
FD7F
0100
FFFF
0100
FD7F
0540
0540
0540
0540
0540
07C0
ENDCHAR
STARTCHAR cross_mask
ENCODING 31
SWIDTH 547 0
DWIDTH 17 0
BBX 16 16 -7 -9
BITMAP
07C0
07C0
07C0
07C0
07C0
FFFF
FFFF
FFFF
FFFF
FFFF
07C0
07C0
07C0
07C0
07C0
07C0
ENDCHAR
STARTCHAR cross_reverse
ENCODING 32
SWIDTH 547 0
DWIDTH 17 0
BBX 16 15 -7 -8
BITMAP
2448
1451
8C62
4444
2008
F01F
0000
0100
0000
F01F
2008
4444
8C62
1451
2448
ENDCHAR
STARTCHAR cross_reverse_mask
ENCODING 33
SWIDTH 547 0
DWIDTH 17 0
BBX 16 15 -7 -8
BITMAP
66CC
B6DB
DEF6
6EEC
36D8
FABF
FC7F
0100
FC7F
FABF
36D8
6EEC
DEF6
B6DB
66CC
ENDCHAR
STARTCHAR crosshair
ENCODING 34
SWIDTH 547 0
DWIDTH 17 0
BBX 16 16 -7 -9
BITMAP
0280
0280
0280
0280
0280
0280
FEFF
0100
FEFF
0280
0280
0280
0280
0280
0280
0380
ENDCHAR
STARTCHAR crosshair_mask
ENCODING 35
SWIDTH 547 0
DWIDTH 17 0
BBX 16 16 -7 -9
BITMAP
0380
0380
0380
0380
0380
0380
FFFF
FFFF
FFFF
0380
0380
0380
0380
0380
0380
0380
ENDCHAR
STARTCHAR diamond_cross
ENCODING 36
SWIDTH 547 0
DWIDTH 17 0
BBX 16 16 -7 -9
BITMAP
0540
0920
1550
2928
5114
A10A
0101
FEFF
0101
A10A
5114
2928
1550
0920
0540
0380
ENDCHAR
STARTCHAR diamond_cross_mask
ENCODING 37
SWIDTH 547 0
DWIDTH 17 0
BBX 16 16 -7 -9
BITMAP
07C0
0FE0
1FF0
3BB8
739C
E38E
FFFF
FEFF
FFFF
E38E
739C
3BB8
1FF0
0FE0
07C0
0380
ENDCHAR
STARTCHAR dot
ENCODING 38
SWIDTH 418 0
DWIDTH 13 0
BBX 12 12 -6 -6
BITMAP
1F80
70E0
4020
C030
8010
8010
8010
8010
C030
4020
70E0
1F80
ENDCHAR
STARTCHAR dot_mask
ENCODING 39
SWIDTH 418 0
DWIDTH 13 0
BBX 12 12 -6 -6
BITMAP
1F80
7FE0
7FE0
FFF0
FFF0
FFF0
FFF0
FFF0
FFF0
7FE0
7FE0
1F80
ENDCHAR
STARTCHAR dotbox
ENCODING 40
SWIDTH 483 0
DWIDTH 15 0
BBX 14 14 -7 -8
BITMAP
FFFC
8004
BFF4
A014
A014
A794
A494
A494
A794
A014
A014
BFF4
8004
FFFC
ENDCHAR
STARTCHAR dotbox_mask
ENCODING 41
SWIDTH 483 0
DWIDTH 15 0
BBX 14 14 -7 -8
BITMAP
FFFC
FFFC
FFFC
E01C
E01C
E79C
E79C
E79C
E79C
E01C
E01C
FFFC
FFFC
FFFC
ENDCHAR
STARTCHAR double_arrow
ENCODING 42
SWIDTH 547 0
DWIDTH 17 0
BBX 16 20 -8 -10
BITMAP
03C0
0660
0C30
1818
300C
2244
766E
5A5A
8241
83C1
83C1
8241
5A5A
766E
2244
300C
1818
0C30
0660
03C0
ENDCHAR
STARTCHAR double_arrow_mask
ENCODING 43
SWIDTH 547 0
DWIDTH 17 0
BBX 16 20 -8 -10
BITMAP
03C0
07E0
0FF0
1FF8
3FFC
3FFC
7FFE
5BDA
83C1
83C1
83C1
83C1
5BDA
7FFE
3FFC
3FFC
1FF8
0FF0
07E0
03C0
ENDCHAR
STARTCHAR draft_large
ENCODING 44
SWIDTH 515 0
DWIDTH 16 0
BBX 15 17 -2 -16
BITMAP
7000
4800
4800
27C0
24B8
1254
1002
7002
9002
8802
6002
1800
0400
0206
000E
00FC
00F8
ENDCHAR
STARTCHAR draft_large_mask
ENCODING 45
SWIDTH 515 0
DWIDTH 16 0
BBX 15 17 -2 -16
BITMAP
7000
7800
7800
3FC0
3FF8
1FFC
1FFE
7FFE
FF6E
FF6E
7FFE
1FF8
07E0
03E6
000E
00FC
00F8
ENDCHAR
STARTCHAR draft_small
ENCODING 46
SWIDTH 515 0
DWIDTH 16 0
BBX 15 14 -2 -13
BITMAP
7000
4800
4800
27C0
24B8
1254
1002
7802
9802
8002
6002
1802
0400
0200
ENDCHAR
STARTCHAR draft_small_mask
ENCODING 47
SWIDTH 515 0
DWIDTH 16 0
BBX 15 14 -2 -13
BITMAP
7000
7800
7800
3FC0
3FF8
1FFC
1FFE
7FFE
FF6E
FF6E
7FFE
1FFE
07F8
03E0
ENDCHAR
STARTCHAR draped_box
ENCODING 48
SWIDTH 837 0
DWIDTH 26 0
BBX 25 24 -2 -23
BITMAP
70000000
48000000
48000000
27C00000
24B80000
12540000
10020000
78020000
98020000
84020000
60020000
18003E00
04003E00
0200F780
0000F780
0000C180
0000F780
0000F780
00003600
00003600
00003600
00003E00
00003E00
00003E00
ENDCHAR
STARTCHAR draped_box_mask
ENCODING 49
SWIDTH 870 0
DWIDTH 27 0
BBX 26 25 -2 -24
BITMAP
70000000
78000000
78000000
3FC00000
3FF80000
1FFC0000
1FFE0000
7FFE0000
FF6E0000
FF6E0000
7FFE0000
1FF83E00
07C03E00
03C0FF80
0000FF80
0000FFC0
0000FFC0
0000FFC0
00003FC0
00003F00
00003F00
00003F00
00003F00
00003F00
00001F00
ENDCHAR
STARTCHAR exchange
ENCODING 50
SWIDTH 1192 0
DWIDTH 37 0
BBX 36 26 -2 -25
BITMAP
7000000000
4800000000
4800000000
27C0000000
24B8000000
1254000000
1002000000
7802000000
9802000000
8402000000
6002000000
1800000000
0400000000
0200000E00
0000003F80
00000073C0
000000E660
000000CC20
000001CE70
000001CE70
000001CE70
0000008660
000000CCE0
00000079C0
0000003F80
0000000E00
ENDCHAR
STARTCHAR exchange_mask
ENCODING 51
SWIDTH 1224 0
DWIDTH 38 0
BBX 37 27 -2 -26
BITMAP
7000000000
7800000000
7800000000
3FC0000000
3FF8000000
1FFC000000
1FFE000000
7FFE000000
FF6E000000
FF6E000000
7FFE000000
1FF8000000
07E0000E00
03E0003F80
0000007FC0
000000FFE0
000001FE70
000001FC30
000003FE78
000003FE78
000003FE78
000001FE70
000001FCF0
000000F9E0
0000007FC0
0000003F80
0000000E00
ENDCHAR
STARTCHAR fleur
ENCODING 52
SWIDTH 612 0
DWIDTH 19 0
BBX 18 15 -11 -8
BITMAP
018000
024000
724C00
4A5200
465200
266400
126580
684640
980880
840100
600200
100400
080800
040000
040000
ENDCHAR
STARTCHAR fleur_mask
ENCODING 53
SWIDTH 612 0
DWIDTH 19 0
BBX 18 15 -11 -8
BITMAP
018000
03C000
73CC00
7BDE00
7FDE00
3FFC00
1FFD80
6FFFC0
FFFF80
FDBF00
7EAE00
1FBC00
0FF800
06E000
078000
ENDCHAR
STARTCHAR gobbler
ENCODING 54
SWIDTH 547 0
DWIDTH 17 0
BBX 16 16 -14 -13
BITMAP
00FC
0084
C08F
7FCC
604F
000C
01CC
03CC
9FC4
FF0C
6018
17F0
1400
1400
3700
2100
ENDCHAR
STARTCHAR gobbler_mask
ENCODING 55
SWIDTH 547 0
DWIDTH 17 0
BBX 16 16 -14 -13
BITMAP
00FC
00FC
C0FF
FFFF
FFFF
FFFC
FFFC
FFFC
FFFC
FFFC
7FF8
1FF0
1C00
1C00
3F00
3F00
ENDCHAR
STARTCHAR gumby
ENCODING 56
SWIDTH 1063 0
DWIDTH 33 0
BBX 32 22 -2 -21
BITMAP
70000000
48000000
48000000
27C00000
24B80000
12540000
10020000
78020000
98020C0C
84021212
60022121
18002121
04002D2D
02002D2D
00002D2D
00004121
00005F3D
00007007
000060C3
00000120
000001E0
000000C0
ENDCHAR
STARTCHAR gumby_mask
ENCODING 57
SWIDTH 1063 0
DWIDTH 33 0
BBX 32 22 -2 -21
BITMAP
70000000
78000000
78000000
3FC00000
3FF80000
1FFC0000
1FFE0000
7FFE0000
FF6E0C0C
FF6E1E1E
7FFE3F3F
1FF83F3F
07E03F3F
03E03F3F
00003F3F
00007F3F
00007F3F
00007007
000060C3
000001E0
000001E0
000000C0
ENDCHAR
STARTCHAR hand1
ENCODING 58
SWIDTH 773 0
DWIDTH 24 0
BBX 23 20 -2 -19
BITMAP
700000
480000
480000
27C000
24B800
125400
100200
780200
980200
840200
600200
180020
040030
020038
00003C
00003E
00003C
000038
000030
000020
ENDCHAR
STARTCHAR hand1_mask
ENCODING 59
SWIDTH 805 0
DWIDTH 25 0
BBX 24 21 -2 -20
BITMAP
700000
780000
780000
3FC000
3FF800
1FFC00
1FFE00
7FFE00
FF6E00
FF6E00
7FFE60
1FF870
07E078
03E07C
00007E
00007F
00007F
00007E
00007C
000078
000070
ENDCHAR
STARTCHAR hand2
ENCODING 60
SWIDTH 515 0
DWIDTH 16 0
BBX 15 14 -2 -13
BITMAP
7000
4800
4800
27C0
24B8
1254
1002
7982
99E2
85F2
61FA
19F0
05E0
0200
ENDCHAR
STARTCHAR hand2_mask
ENCODING 61
SWIDTH 515 0
DWIDTH 16 0
BBX 15 14 -2 -13
BITMAP
7000
7800
7800
3FC0
3FF8
1FFC
1FFE
7FFE
FFFE
FFFE
7FFE
1FF8
07E0
03E0
ENDCHAR
STARTCHAR heart
ENCODING 62
SWIDTH 451 0
DWIDTH 14 0
BBX 13 12 -5 -5
BITMAP
38E0
4510
8208
8008
8008
8508
4210
2020
1040
0880
0700
0200
ENDCHAR
STARTCHAR heart_mask
ENCODING 63
SWIDTH 515 0
DWIDTH 16 0
BBX 15 14 -6 -6
BITMAP
3EF8
7FFC
E38E
C106
C006
C006
C286
E10E
701C
3838
1C70
0FE0
07C0
0380
ENDCHAR
STARTCHAR icon
ENCODING 64
SWIDTH 483 0
DWIDTH 15 0
BBX 14 14 -7 -7
BITMAP
5554
AAA8
5554
BFE8
5FF4
BFE8
5FF4
BFE8
5FF4
BFE8
5FF4
AAA8
5554
AAA8
ENDCHAR
STARTCHAR icon_mask
ENCODING 65
SWIDTH 547 0
DWIDTH 17 0
BBX 16 16 -8 -8
BITMAP
FFFF
FFFF
FFFF
FFFF
FFFF
FFFF
FFFF
FFFF
FFFF
FFFF
FFFF
FFFF
FFFF
FFFF
FFFF
FFFF
ENDCHAR
STARTCHAR iron_cross
ENCODING 66
SWIDTH 547 0
DWIDTH 17 0
BBX 16 16 -8 -9
BITMAP
3FFC
4002
6006
B00D
9819
8C31
8661
8001
8001
8661
8C31
9819
B00D
6006
4002
3FFC
ENDCHAR
STARTCHAR iron_cross_mask
ENCODING 67
SWIDTH 547 0
DWIDTH 17 0
BBX 16 16 -8 -9
BITMAP
3FFC
7FFE
7FFE
FFFF
FFFF
FFFF
FFFF
FFFF
FFFF
FFFF
FFFF
FFFF
FFFF
7FFE
7FFE
3FFC
ENDCHAR
STARTCHAR left_ptr
ENCODING 68
SWIDTH 515 0
DWIDTH 16 0
BBX 15 14 -2 -13
BITMAP
7000
4800
4800
27C0
24B8
1254
1002
7802
9802
8402
6002
1800
0400
0200
ENDCHAR
STARTCHAR left_ptr_mask
ENCODING 69
SWIDTH 515 0
DWIDTH 16 0
BBX 15 14 -2 -13
BITMAP
7000
7800
7800
3FC0
3FF8
1FFC
1FFE
7FFE
FF6E
FF6E
7FFE
1FF8
07E0
03E0
ENDCHAR
STARTCHAR left_side
ENCODING 70
SWIDTH 676 0
DWIDTH 21 0
BBX 20 16 -10 -8
BITMAP
00F000
030C00
0E0700
1B0D80
3108C0
620460
C7FE30
806010
806010
C7FE30
620460
3108C0
1B0D80
0E0700
030C00
00F000
ENDCHAR
STARTCHAR left_side_mask
ENCODING 71
SWIDTH 676 0
DWIDTH 21 0
BBX 20 16 -10 -8
BITMAP
00F000
030C00
0E0700
1F0F80
3F0FC0
7E07E0
FFFFF0
FFFFF0
FFFFF0
FFFFF0
7E07E0
3F0FC0
1F0F80
0E0700
030C00
00F000
ENDCHAR
STARTCHAR left_tee
ENCODING 72
SWIDTH 418 0
DWIDTH 13 0
BBX 12 16 -1 -8
BITMAP
F000
9000
9000
9000
9000
9000
9FF0
8010
8010
9FF0
9000
9000
9000
9000
9000
F000
ENDCHAR
STARTCHAR left_tee_mask
ENCODING 73
SWIDTH 418 0
DWIDTH 13 0
BBX 12 16 -1 -8
BITMAP
F000
F000
F000
F000
F000
F000
FFF0
FFF0
FFF0
FFF0
F000
F000
F000
F000
F000
F000
ENDCHAR
STARTCHAR leftbutton
ENCODING 74
SWIDTH 515 0
DWIDTH 16 0
BBX 15 16 -8 -8
BITMAP
7FFC
8002
8002
BBBA
BAAA
BAAA
BAAA
BAAA
BBBA
8002
8002
8002
8002
8002
8002
7FFC
ENDCHAR
STARTCHAR leftbutton_mask
ENCODING 75
SWIDTH 515 0
DWIDTH 16 0
BBX 15 16 -8 -8
BITMAP
7FFC
FFFE
FFFE
FFFE
FFFE
FFFE
FFFE
FFFE
FFFE
FFFE
FFFE
FFFE
FFFE
FFFE
FFFE
7FFC
ENDCHAR
STARTCHAR ll_angle
ENCODING 76
SWIDTH 418 0
DWIDTH 13 0
BBX 12 12 -1 -2
BITMAP
F000
9000
9000
9000
9000
9000
9000
9000
9FF0
8010
8010
FFF0
ENDCHAR
STARTCHAR ll_angle_mask
ENCODING 77
SWIDTH 418 0
DWIDTH 13 0
BBX 12 12 -1 -2
BITMAP
F000
F000
F000
F000
F000
F000
F000
F000
FFF0
FFF0
FFF0
FFF0
ENDCHAR
STARTCHAR lr_angle
ENCODING 78
SWIDTH 418 0
DWIDTH 13 0
BBX 12 12 -10 -2
BITMAP
00F0
0090
0090
0090
0090
0090
0090
0090
FF90
8010
8010
FFF0
ENDCHAR
STARTCHAR lr_angle_mask
ENCODING 79
SWIDTH 418 0
DWIDTH 13 0
BBX 12 12 -10 -2
BITMAP
00F0
00F0
00F0
00F0
00F0
00F0
00F0
00F0
FFF0
FFF0
FFF0
FFF0
ENDCHAR
STARTCHAR man
ENCODING 80
SWIDTH 515 0
DWIDTH 16 0
BBX 15 22 -15 -3
BITMAP
0380
0440
0000
0000
8002
0000
0000
0000
0000
0000
0000
0000
0000
0000
0000
0000
0000
0000
0000
0000
3458
1C70
ENDCHAR
STARTCHAR man_mask
ENCODING 81
SWIDTH 515 0
DWIDTH 16 0
BBX 15 22 -15 -3
BITMAP
0380
07C0
07C0
0380
C106
2108
1110
0FE0
0100
0100
0100
0100
0280
0440
0820
0820
0820
0820
0820
0820
3C78
1C70
ENDCHAR
STARTCHAR middlebutton
ENCODING 82
SWIDTH 580 0
DWIDTH 18 0
BBX 17 18 -8 -5
BITMAP
380E00
441100
841080
822080
822080
422100
222200
12A400
0B6800
080800
122400
136400
277200
200200
11C400
09C800
05D000
03E000
ENDCHAR
STARTCHAR middlebutton_mask
ENCODING 83
SWIDTH 580 0
DWIDTH 18 0
BBX 17 18 -8 -5
BITMAP
380E00
7C1F00
FC1F80
FE3F80
FE3F80
7E3F00
3E3E00
1EBC00
0FF800
0FF800
1FFC00
1FFC00
3FFE00
3FFE00
1FFC00
0FF800
07F000
03E000
ENDCHAR
STARTCHAR mouse
ENCODING 84
SWIDTH 547 0
DWIDTH 17 0
BBX 16 16 -4 -15
BITMAP
0880
1200
0900
0400
0000
7FF8
4CC9
4CC9
4CC9
7FF9
7FF9
9FE3
2797
1860
0FC0
0780
ENDCHAR
STARTCHAR mouse_mask
ENCODING 85
SWIDTH 547 0
DWIDTH 17 0
BBX 16 16 -4 -15
BITMAP
0F80
1E00
0F00
0700
7FF8
FFFC
FFFF
FFFF
FFFF
FFFF
FFFF
FFFF
3FF7
1FE0
0FC0
0780
ENDCHAR
STARTCHAR pencil
ENCODING 86
SWIDTH 451 0
DWIDTH 14 0
BBX 13 16 -11 -1
BITMAP
C400
BA00
B900
5A00
0280
2F00
1740
0780
0BA0
01C0
05D0
02E8
0108
0088
0048
0028
ENDCHAR
STARTCHAR pencil_mask
ENCODING 87
SWIDTH 451 0
DWIDTH 14 0
BBX 13 16 -11 -1
BITMAP
FC00
FE00
FF00
7F00
3F80
3F80
1FC0
0FC0
0FE0
07E0
07F0
03F8
01F8
00F8
0078
0038
ENDCHAR
STARTCHAR pirate
ENCODING 88
SWIDTH 870 0
DWIDTH 27 0
BBX 26 23 -1 -23
BITMAP
60000000
60000000
30000000
36800000
1B500000
1FF80000
0FF80000
CED80000
F6D80000
3FF80000
0FE00000
07800000
03804100
0000A280
00011440
00008880
00004100
00002200
00004100
00008880
00011440
0000A280
00004100
ENDCHAR
STARTCHAR pirate_mask
ENCODING 89
SWIDTH 902 0
DWIDTH 28 0
BBX 27 24 -2 -23
BITMAP
70000000
78000000
78000000
3FC00000
3FF80000
1FFC0000
1FFE0000
7FFE0000
FF6E0000
FF6E0000
7FFE0000
1FF00000
07C00000
03C02080
000071C0
0000FBE0
00007FC0
00003F80
00001F00
00003F80
00007FC0
0000FBE0
000071C0
00002080
ENDCHAR
STARTCHAR plus
ENCODING 90
SWIDTH 418 0
DWIDTH 13 0
BBX 12 12 -5 -6
BITMAP
0F00
0900
0900
0900
F9F0
8010
8010
F9F0
0900
0900
0900
0F00
ENDCHAR
STARTCHAR plus_mask
ENCODING 91
SWIDTH 418 0
DWIDTH 13 0
BBX 12 12 -5 -6
BITMAP
0F00
0F00
0F00
0F00
FFF0
FFF0
FFF0
FFF0
0F00
0F00
0F00
0F00
ENDCHAR
STARTCHAR question_arrow
ENCODING 92
SWIDTH 837 0
DWIDTH 26 0
BBX 25 21 3 8
BITMAP
70000000
48000000
48000000
27C00000
24B80C00
12543600
10026300
7802C980
98029480
8002C980
60024900
18023300
04000200
02001200
00001200
00000C00
00000000
00000C00
00001200
00001200
00000C00
ENDCHAR
STARTCHAR question_arrow_mask
ENCODING 93
SWIDTH 837 0
DWIDTH 26 0
BBX 25 21 3 8
BITMAP
70000000
78000000
78000000
3FC00000
3FF80C00
1FFC3E00
1FFE7F00
7FFEFF80
FF6EF780
FF6EFF80
7FFE7F00
1FFE3F00
07F80E00
03E01E00
00001E00
00000C00
00000000
00000C00
00001E00
00001E00
00000C00
ENDCHAR
STARTCHAR right_ptr
ENCODING 94
SWIDTH 354 0
DWIDTH 11 0
BBX 10 16 -8 -15
BITMAP
00C0
0140
0240
0440
0840
1040
2040
4040
8040
F040
1240
2540
24C0
4800
4800
3000
ENDCHAR
STARTCHAR right_ptr_mask
ENCODING 95
SWIDTH 354 0
DWIDTH 11 0
BBX 10 16 -8 -15
BITMAP
00C0
01C0
03C0
07C0
0FC0
1FC0
3FC0
7FC0
FFC0
FFC0
1FC0
3DC0
3CC0
7800
7800
3000
ENDCHAR
STARTCHAR right_side
ENCODING 96
SWIDTH 676 0
DWIDTH 21 0
BBX 20 16 -10 -8
BITMAP
00F000
030C00
0E0700
1B0D80
3108C0
620460
C7FE30
806010
806010
C7FE30
620460
3108C0
1B0D80
0E0700
030C00
00F000
ENDCHAR
STARTCHAR right_side_mask
ENCODING 97
SWIDTH 676 0
DWIDTH 21 0
BBX 20 16 -10 -8
BITMAP
00F000
030C00
0E0700
1F0F80
3F0FC0
7E07E0
FFFFF0
FFFFF0
FFFFF0
FFFFF0
7E07E0
3F0FC0
1F0F80
0E0700
030C00
00F000
ENDCHAR
STARTCHAR right_tee
ENCODING 98
SWIDTH 418 0
DWIDTH 13 0
BBX 12 16 -10 -8
BITMAP
00F0
0090
0090
0090
0090
0090
FF90
8010
8010
FF90
0090
0090
0090
0090
0090
00F0
ENDCHAR
STARTCHAR right_tee_mask
ENCODING 99
SWIDTH 418 0
DWIDTH 13 0
BBX 12 16 -10 -8
BITMAP
00F0
00F0
00F0
00F0
00F0
00F0
FFF0
FFF0
FFF0
FFF0
00F0
00F0
00F0
00F0
00F0
00F0
ENDCHAR
STARTCHAR rightbutton
ENCODING 100
SWIDTH 515 0
DWIDTH 16 0
BBX 15 16 -8 -8
BITMAP
7FFC
8002
8002
BBBA
AABA
AABA
AABA
AABA
BBBA
8002
8002
8002
8002
8002
8002
7FFC
ENDCHAR
STARTCHAR rightbutton_mask
ENCODING 101
SWIDTH 515 0
DWIDTH 16 0
BBX 15 16 -8 -8
BITMAP
7FFC
FFFE
FFFE
FFFE
FFFE
FFFE
FFFE
FFFE
FFFE
FFFE
FFFE
FFFE
FFFE
FFFE
FFFE
7FFC
ENDCHAR
STARTCHAR rtl_logo
ENCODING 102
SWIDTH 547 0
DWIDTH 17 0
BBX 16 16 -7 -9
BITMAP
FFFF
8001
BFDD
A055
BFD5
8015
BBD5
AA55
AA55
ABDD
A801
ABFD
AA05
BBFD
8001
FFFF
ENDCHAR
STARTCHAR rtl_logo_mask
ENCODING 103
SWIDTH 547 0
DWIDTH 17 0
BBX 16 16 -7 -9
BITMAP
FFFF
FFFF
FFFF
E077
FFF7
FFF7
FFF7
EE77
EE77
EFFF
EFFF
EFFF
EE07
FFFF
FFFF
FFFF
ENDCHAR
STARTCHAR sailboat
ENCODING 104
SWIDTH 547 0
DWIDTH 17 0
BBX 16 16 -8 -16
BITMAP
00C0
00A0
01A0
0290
0290
0490
0488
0888
0888
1084
1084
2084
2083
41C7
FFF8
7FE0
ENDCHAR
STARTCHAR sailboat_mask
ENCODING 105
SWIDTH 547 0
DWIDTH 17 0
BBX 16 16 -8 -16
BITMAP
00C0
00E0
01E0
03F0
03F0
07F0
07F8
0FF8
0FF8
1FFC
1FFC
3FFC
3FFF
7FFF
FFF8
7FE0
ENDCHAR
STARTCHAR sb_down_arrow
ENCODING 106
SWIDTH 322 0
DWIDTH 10 0
BBX 9 17 -4 -1
BITMAP
3E00
0000
3E00
3E00
0000
3E00
2200
2200
2200
2200
2200
E380
8080
C180
6300
3600
1C00
ENDCHAR
STARTCHAR sb_down_arrow_mask
ENCODING 107
SWIDTH 322 0
DWIDTH 10 0
BBX 9 17 -4 -1
BITMAP
3E00
0000
3E00
3E00
0000
3E00
3E00
3E00
3E00
3E00
3E00
FF80
FF80
FF80
7F00
3E00
1C00
ENDCHAR
STARTCHAR sb_h_double_arrow
ENCODING 108
SWIDTH 580 0
DWIDTH 18 0
BBX 17 17 -8 -8
BITMAP
001800
001C00
B7F600
B40300
B40100
B40300
B7F600
001C00
181800
380000
6FF680
C01680
801680
C01680
6FF680
380000
180000
ENDCHAR
STARTCHAR sb_h_double_arrow_mask
ENCODING 109
SWIDTH 580 0
DWIDTH 18 0
BBX 17 17 -8 -8
BITMAP
001800
001C00
B7FE00
B7FF00
B7FF00
B7FF00
B7FE00
001C00
181800
380000
7FF680
FFF680
FFF680
FFF680
7FF680
380000
180000
ENDCHAR
STARTCHAR sb_left_arrow
ENCODING 110
SWIDTH 515 0
DWIDTH 16 0
BBX 15 14 -1 -9
BITMAP
01C0
0120
0090
7FCC
8002
8000
7FE0
0200
0400
0380
0400
03C0
0200
01F8
ENDCHAR
STARTCHAR sb_left_arrow_mask
ENCODING 111
SWIDTH 547 0
DWIDTH 17 0
BBX 16 14 -1 -9
BITMAP
01C0
01E0
00F0
7FFC
FFFE
FFFE
7FFF
03FF
07FF
03FF
07FD
03FF
03FC
01F8
ENDCHAR
STARTCHAR sb_right_arrow
ENCODING 112
SWIDTH 515 0
DWIDTH 16 0
BBX 15 14 -14 -9
BITMAP
0700
0900
1200
67FC
8002
0002
0FFC
0080
0040
0380
0040
0780
0080
7F00
ENDCHAR
STARTCHAR sb_right_arrow_mask
ENCODING 113
SWIDTH 547 0
DWIDTH 17 0
BBX 16 14 -15 -9
BITMAP
0380
0780
0F00
3FFE
7FFF
7FFF
FFFE
FFC0
FFE0
FFC0
BFE0
FFC0
7FC0
3F80
ENDCHAR
STARTCHAR sb_up_arrow
ENCODING 114
SWIDTH 322 0
DWIDTH 10 0
BBX 9 17 -4 -17
BITMAP
1C00
3600
6300
C180
8080
E380
2200
2200
2200
2200
2200
3E00
0000
3E00
3E00
0000
3E00
ENDCHAR
STARTCHAR sb_up_arrow_mask
ENCODING 115
SWIDTH 322 0
DWIDTH 10 0
BBX 9 17 -4 -17
BITMAP
1C00
3E00
7F00
FF80
FF80
FF80
3E00
3E00
3E00
3E00
3E00
3E00
0000
3E00
3E00
0000
3E00
ENDCHAR
STARTCHAR sb_v_double_arrow
ENCODING 116
SWIDTH 580 0
DWIDTH 18 0
BBX 17 17 -9 -9
BITMAP
003E00
1C0000
363E00
633E00
C18000
E3BE00
222200
222200
222200
222200
222200
3EE380
00C180
3E6300
3E3600
001C00
3E0000
ENDCHAR
STARTCHAR sb_v_double_arrow_mask
ENCODING 117
SWIDTH 580 0
DWIDTH 18 0
BBX 17 17 -9 -9
BITMAP
003E00
1C0000
3E3E00
7F3E00
FF8000
FFBE00
3E3E00
3E3E00
3E3E00
3E3E00
3E3E00
3EFF80
00FF80
3E7F00
3E3E00
001C00
3E0000
ENDCHAR
STARTCHAR shuttle
ENCODING 118
SWIDTH 515 0
DWIDTH 16 0
BBX 15 27 -2 -26
BITMAP
7000
4800
4800
27C0
24B8
1254
1002
7802
9802
8402
6002
1800
0400
0200
0000
0000
0010
0038
006C
00D6
0038
006C
00D6
00BA
006C
00C6
0082
ENDCHAR
STARTCHAR shuttle_mask
ENCODING 119
SWIDTH 547 0
DWIDTH 17 0
BBX 16 28 -2 -27
BITMAP
7000
7800
7800
3FC0
3FF8
1FFC
1FFE
7FFE
FF6E
FF6E
7FFE
1FF8
07E0
03E0
0000
0038
007C
00FE
01FF
01FF
01FF
01FF
01FF
01FF
01FF
01FF
01FF
01FF
ENDCHAR
STARTCHAR sizing
ENCODING 120
SWIDTH 547 0
DWIDTH 17 0
BBX 16 16 -8 -8
BITMAP
FFC0
8040
BFC0
A000
AFF0
A810
ABD7
AA55
AA55
EBD5
0815
0FED
0015
03F9
0201
03FF
ENDCHAR
STARTCHAR sizing_mask
ENCODING 121
SWIDTH 547 0
DWIDTH 17 0
BBX 16 16 -8 -8
BITMAP
FFC0
FFC0
FFC0
E000
EFF0
EFF0
EFF7
EE77
EE77
EFF7
0FF7
0FFF
001F
03FF
03FF
03FF
ENDCHAR
STARTCHAR spider
ENCODING 122
SWIDTH 1063 0
DWIDTH 33 0
BBX 32 18 -2 -17
BITMAP
70000000
48000000
48000000
27C00000
24B80000
12540000
18020000
78020606
84020B0D
80020909
60020606
18000208
04000110
020000E0
00000248
000005F4
00000208
000001F0
ENDCHAR
STARTCHAR spider_mask
ENCODING 123
SWIDTH 1063 0
DWIDTH 33 0
BBX 32 18 -2 -17
BITMAP
70000000
78000000
78000000
3FC00000
3FF80000
1FFC0000
1FFE0000
7FFE0606
FF6E0F0F
FF6E0F0F
7FFE0606
1FF80208
07C00110
03C000E0
00000248
000007FC
000003F8
000001F0
ENDCHAR
STARTCHAR spraycan
ENCODING 124
SWIDTH 418 0
DWIDTH 13 0
BBX 12 15 -10 -14
BITMAP
1830
2480
0230
4A80
8100
BD00
8D00
AD00
8D00
AD00
8D00
8D00
BD00
BD00
8100
ENDCHAR
STARTCHAR spraycan_mask
ENCODING 125
SWIDTH 418 0
DWIDTH 13 0
BBX 12 16 -10 -14
BITMAP
0030
18B0
3EB0
3EB0
7EB0
FF00
FF00
FF00
FF00
FF00
FF00
FF00
FF00
FF00
FF00
FF00
ENDCHAR
STARTCHAR star
ENCODING 126
SWIDTH 1031 0
DWIDTH 32 0
BBX 31 25 -2 -24
BITMAP
70000000
48000000
48000000
27C00000
24B80000
12540000
10020000
78020000
98020000
84020000
60020000
18000100
04000380
02000380
00000380
000007C0
0000FFFE
00007FFC
00003FF8
00000FE0
00000FE0
00001FF0
00003EF8
0000783C
0000600C
ENDCHAR
STARTCHAR star_mask
ENCODING 127
SWIDTH 1031 0
DWIDTH 32 0
BBX 31 25 -2 -24
BITMAP
70000000
78000000
78000000
3FC00000
3FF80000
1FFC0000
1FFE0000
7FFE0000
FF6E0000
FF6E0000
7FFE0000
1FF80100
07E00380
03E00380
00000380
000007C0
0000FFFE
00007FFC
00003FF8
00000FE0
00000FE0
00001FF0
00003EF8
0000783C
0000600C
ENDCHAR
STARTCHAR target
ENCODING 128
SWIDTH 547 0
DWIDTH 17 0
BBX 16 14 -7 -7
BITMAP
07C0
0C60
1010
2008
4004
8102
0281
0441
0281
8102
4004
2008
1010
0440
ENDCHAR
STARTCHAR target_mask
ENCODING 129
SWIDTH 547 0
DWIDTH 17 0
BBX 16 14 -7 -7
BITMAP
07C0
0FE0
1FF0
3C78
701C
E10E
C387
C6C7
C387
E10E
701C
3C78
1FF0
07C0
ENDCHAR
STARTCHAR tcross
ENCODING 130
SWIDTH 515 0
DWIDTH 16 0
BBX 15 15 -7 -8
BITMAP
0380
0280
0280
0280
0280
0280
FEFE
8002
FEFE
0280
0280
0280
0280
0280
0380
ENDCHAR
STARTCHAR tcross_mask
ENCODING 131
SWIDTH 515 0
DWIDTH 16 0
BBX 15 15 -7 -8
BITMAP
0380
0380
0380
0380
0380
0380
FFFE
FFFE
FFFE
0380
0380
0380
0380
0380
0380
ENDCHAR
STARTCHAR top_left_arrow
ENCODING 132
SWIDTH 515 0
DWIDTH 16 0
BBX 15 18 -2 -17
BITMAP
7000
4800
4800
27C0
24B8
1254
1002
7802
9892
8492
6082
1800
0400
0206
000A
01F2
0104
01F8
ENDCHAR
STARTCHAR top_left_arrow_mask
ENCODING 133
SWIDTH 515 0
DWIDTH 16 0
BBX 15 18 -2 -17
BITMAP
7000
7800
7800
3FC0
3FF8
1FFC
1FFE
7FFE
FFFE
FFFE
7FFE
1FF8
07E0
03E6
000E
01FE
01FC
01F8
ENDCHAR
STARTCHAR top_left_corner
ENCODING 134
SWIDTH 547 0
DWIDTH 17 0
BBX 16 16 -8 -8
BITMAP
3FC0
7FF8
C08C
C086
C382
C103
C89F
CDD3
FBB3
C113
4083
41C3
6103
3102
1FFE
03FC
ENDCHAR
STARTCHAR top_left_corner_mask
ENCODING 135
SWIDTH 547 0
DWIDTH 17 0
BBX 16 16 -8 -8
BITMAP
3FC0
7FF8
FF8C
FF86
FF82
FF03
FF9F
FFDF
FBFF
C1FF
40FF
41FF
61FF
31FE
1FFE
03FC
ENDCHAR
STARTCHAR top_right_corner
ENCODING 136
SWIDTH 547 0
DWIDTH 17 0
BBX 16 16 -8 -8
BITMAP
03FC
1FFE
3103
6103
41C3
4083
C113
FBB3
CDDF
C883
C182
C382
C086
C08C
7FF8
3FC0
ENDCHAR
STARTCHAR top_right_corner_mask
ENCODING 137
SWIDTH 547 0
DWIDTH 17 0
BBX 16 16 -8 -8
BITMAP
03FC
1FFE
31FF
61FF
41FF
40FF
C1FF
FBFF
FFDF
FF83
FF82
FF82
FF86
FF8C
7FF8
3FC0
ENDCHAR
STARTCHAR top_side
ENCODING 138
SWIDTH 547 0
DWIDTH 17 0
BBX 16 20 -8 -10
BITMAP
03C0
0660
0C30
1818
300C
2244
766E
5A5A
8241
83C1
83C1
8241
5A5A
766E
2244
300C
1818
0C30
0660
03C0
ENDCHAR
STARTCHAR top_side_mask
ENCODING 139
SWIDTH 547 0
DWIDTH 17 0
BBX 16 20 -8 -10
BITMAP
03C0
07E0
0FF0
1FF8
3FFC
3FFC
7FFE
5BDA
83C1
83C1
83C1
83C1
5BDA
7FFE
3FFC
3FFC
1FF8
0FF0
07E0
03C0
ENDCHAR
STARTCHAR top_tee
ENCODING 140
SWIDTH 547 0
DWIDTH 17 0
BBX 16 12 -8 -11
BITMAP
FFFF
8001
8001
FE7F
0240
0240
0240
0240
0240
0240
0240
03C0
ENDCHAR
STARTCHAR top_tee_mask
ENCODING 141
SWIDTH 547 0
DWIDTH 17 0
BBX 16 12 -8 -11
BITMAP
FFFF
FFFF
FFFF
FFFF
03C0
03C0
03C0
03C0
03C0
03C0
03C0
03C0
ENDCHAR
STARTCHAR trek
ENCODING 142
SWIDTH 322 0
DWIDTH 10 0
BBX 9 16 -4 -16
BITMAP
1400
1C00
2200
4100
8080
8880
8080
4100
2200
5500
A280
9480
B680
AA80
AA80
A280
ENDCHAR
STARTCHAR trek_mask
ENCODING 143
SWIDTH 322 0
DWIDTH 10 0
BBX 9 16 -4 -16
BITMAP
1C00
1C00
3E00
7F00
FF80
FF80
FF80
7F00
3E00
5D00
FF80
FF80
FF80
EB80
EB80
E380
ENDCHAR
STARTCHAR ul_angle
ENCODING 144
SWIDTH 418 0
DWIDTH 13 0
BBX 12 12 -1 -11
BITMAP
FFF0
8010
8010
9FF0
9000
9000
9000
9000
9000
9000
9000
F000
ENDCHAR
STARTCHAR ul_angle_mask
ENCODING 145
SWIDTH 418 0
DWIDTH 13 0
BBX 12 12 -1 -11
BITMAP
FFF0
FFF0
FFF0
FFF0
F000
F000
F000
F000
F000
F000
F000
F000
ENDCHAR
STARTCHAR umbrella
ENCODING 146
SWIDTH 966 0
DWIDTH 30 0
BBX 29 19 -3 -18
BITMAP
38000000
24000000
24000000
13E00000
125C0000
792A0000
98010000
840101C0
60010220
18010410
04010808
02000D58
00000AA8
00000080
00000080
00000080
00000480
00000480
00000300
ENDCHAR
STARTCHAR umbrella_mask
ENCODING 147
SWIDTH 966 0
DWIDTH 30 0
BBX 29 20 -3 -19
BITMAP
38000000
3C000000
3C000000
1FE00000
1FFC0000
7FFE0000
FFFF0000
FFFF01C0
7FB703E0
1FB707F0
07FF0FF8
03F80FF8
00000AE8
000000C0
000000C0
000000C0
000004C0
000004C0
00000780
00000300
ENDCHAR
STARTCHAR ur_angle
ENCODING 148
SWIDTH 418 0
DWIDTH 13 0
BBX 12 12 -10 -11
BITMAP
FFF0
8010
8010
FF90
0090
0090
0090
0090
0090
0090
0090
00F0
ENDCHAR
STARTCHAR ur_angle_mask
ENCODING 149
SWIDTH 418 0
DWIDTH 13 0
BBX 12 12 -10 -11
BITMAP
FFF0
FFF0
FFF0
FFF0
00F0
00F0
00F0
00F0
00F0
00F0
00F0
00F0
ENDCHAR
STARTCHAR watch
ENCODING 150
SWIDTH 1224 0
DWIDTH 38 0
BBX 37 32 -2 -31
BITMAP
7000000000
4800000000
4800000000
27C0000000
24B8000000
1254000000
1002000000
7802000000
9802000000
8402000000
6002000000
1800000000
0400000000
0200000000
000000FF00
00000381C0
0000060E60
00000C4930
0000080890
0000194858
0000100828
0000114828
0000100FE8
000013F808
000017FA28
000013F888
000019FA18
000009F890
00000CFA30
0000063060
00000381C0
000000FF00
ENDCHAR
STARTCHAR watch_mask
ENCODING 151
SWIDTH 1224 0
DWIDTH 38 0
BBX 37 32 -2 -31
BITMAP
7000000000
7800000000
7800000000
3FC0000000
3FF8000000
1FFC000000
1FFE000000
7FFE000000
FF6E000000
FF6E000000
7FFE000000
1FF8000000
07E0000000
03E0000000
000000FF00
000003FFC0
000007FFE0
00000EFFF0
00000DFFF0
00001FFFF8
00001BFFF8
00001FFFF8
00001FFFF8
00001FFFF8
00001FFFF8
00001FFFD8
00001FFFF8
00000FFFB0
00000FFF70
000007FFE0
000003FFC0
000000FF00
ENDCHAR
STARTCHAR xterm
ENCODING 152
SWIDTH 322 0
DWIDTH 10 0
BBX 9 16 -4 -8
BITMAP
F780
8880
E380
3600
1400
1400
1400
1400
1400
1400
1400
1400
3600
E380
8880
F780
ENDCHAR
STARTCHAR xterm_mask
ENCODING 153
SWIDTH 322 0
DWIDTH 10 0
BBX 9 16 -4 -8
BITMAP
F780
FF80
FF80
3E00
1C00
1C00
1C00
1C00
1C00
1C00
1C00
1C00
3E00
FF80
FF80
F780
ENDCHAR
ENDFONT
